<svg id="Camada_1" data-name="Camada 1" xmlns="http://www.w3.org/2000/svg" viewBox="0 0 432.59 432"><defs><style>.cls-1{fill:#f6c915;}.cls-2,.cls-5{fill:none;}.cls-2{stroke:#f6c915;stroke-width:2px;}.cls-2,.cls-3,.cls-4,.cls-5{stroke-miterlimit:10;}.cls-3{fill:#128140;stroke:#128140;}.cls-3,.cls-4{stroke-width:0.25px;}.cls-4{fill:#ae7f2b;}.cls-4,.cls-5{stroke:#ae7f2b;}.cls-5{stroke-width:4px;}.cls-6{fill:#59585a;}</style></defs><path class="cls-1" d="M145,79.6a126.71,126.71,0,0,1,39.79,21,128.32,128.32,0,0,1,9.83,8.53c1.16,1.11,2.93-.66,1.77-1.77a131,131,0,0,0-38.62-25.69,127.47,127.47,0,0,0-12.1-4.52c-1.54-.49-2.2,1.92-.67,2.41Z"/><path class="cls-1" d="M181.94,90.43a36.16,36.16,0,0,1,7.82,14.08,1.25,1.25,0,0,0,2.41-.66,38.86,38.86,0,0,0-8.46-15.18c-1.08-1.2-2.85.57-1.77,1.76Z"/><path class="cls-1" d="M168.49,81.55l.27.1c.2.07-.28-.13-.07,0l.16.07.91.44c.84.43,1.67.88,2.5,1.35,2.51,1.42,5,3,7.34,4.59a1.26,1.26,0,0,0,1.71-.45,1.28,1.28,0,0,0-.45-1.71c-2.43-1.64-4.91-3.22-7.47-4.66a26.17,26.17,0,0,0-4.24-2.11,1.26,1.26,0,0,0-1.54.87,1.29,1.29,0,0,0,.88,1.54Z"/><path class="cls-1" d="M145.29,79.64c3.66-.12,7.33-.21,11-.13a48,48,0,0,1,9.11.85c1.56.34,2.23-2.07.66-2.41-6.72-1.45-14-1-20.77-.81-1.61.06-1.61,2.56,0,2.5Z"/><path class="cls-1" d="M173.64,101.79a22.58,22.58,0,0,0,11.84-1.2,1.28,1.28,0,0,0,.87-1.54,1.24,1.24,0,0,0-1.53-.87,24.76,24.76,0,0,1-6.06,1.37,20,20,0,0,1-2.57,0c-.38,0-.75,0-1.12-.09-.15,0-.17,0,0,0l-.25,0-.46-.09a1.28,1.28,0,0,0-1.54.87,1.27,1.27,0,0,0,.87,1.54Z"/><path class="cls-1" d="M144.4,79.28c1.44,1.14,2.95,2.18,4.38,3.33a57.92,57.92,0,0,1,6.48,6.15c1,1.14,2,2.37,3.09,3.42s2.1,1.81,3.19,2.66a47.51,47.51,0,0,0,7,4.72c1.43.75,2.69-1.41,1.27-2.16a45.39,45.39,0,0,1-6.72-4.52,35.94,35.94,0,0,1-3.14-2.64c-1.14-1.11-2.11-2.39-3.18-3.56a58.57,58.57,0,0,0-6.4-6c-1.36-1.09-2.84-2.1-4.18-3.17s-3,.76-1.77,1.77Z"/><line class="cls-2" x1="174.38" y1="83.27" x2="178.66" y2="94.37"/><line class="cls-2" x1="160.68" y1="92.33" x2="167.53" y2="87.88"/><line class="cls-2" x1="162.87" y1="94.76" x2="170.54" y2="90.23"/><path class="cls-2" d="M169.15,98.48l3.7-.51a.26.26,0,0,1,.29.17l.86,2.3"/><path class="cls-2" d="M165.73,79.15l.86,3.3a.1.1,0,0,0,.17,0l2.05-2.17"/><path class="cls-1" d="M137.8,121.21a128.07,128.07,0,0,1,56.49-12,1.25,1.25,0,0,0,0-2.5,131.33,131.33,0,0,0-45.74,7.37,129.51,129.51,0,0,0-12,5c-1.46.68-.19,2.84,1.26,2.16Z"/><path class="cls-1" d="M172.3,104.06a36.08,36.08,0,0,1,15.27,5,1.25,1.25,0,0,0,1.27-2.16,39,39,0,0,0-16.54-5.38c-1.61-.14-1.6,2.36,0,2.5Z"/><path class="cls-1" d="M156.39,106.65c.19-.08-.26.1-.13.06l.15-.06.35-.12.93-.29c.92-.26,1.86-.5,2.79-.72,2.81-.66,5.65-1.18,8.5-1.62a1.26,1.26,0,0,0,.88-1.53,1.29,1.29,0,0,0-1.54-.88c-2.91.45-5.8,1-8.66,1.66a26.47,26.47,0,0,0-4.53,1.34,1.26,1.26,0,0,0-.45,1.71,1.28,1.28,0,0,0,1.71.45Z"/><path class="cls-1" d="M138.05,121c2.61-2.57,5.24-5.13,8-7.57a47.36,47.36,0,0,1,7.28-5.56,1.25,1.25,0,0,0-1.26-2.16,50.65,50.65,0,0,0-7.72,5.89c-2.76,2.45-5.42,5-8.05,7.63a1.25,1.25,0,0,0,1.77,1.77Z"/><path class="cls-1" d="M173.93,118a22.44,22.44,0,0,0,7.83-8.92,1.28,1.28,0,0,0-.45-1.71,1.27,1.27,0,0,0-1.71.45,23.62,23.62,0,0,1-3.53,5.12,18.38,18.38,0,0,1-1.85,1.79l-.43.36c-.08.06.16-.12-.06,0l-.19.14c-.29.2-.58.39-.88.57a1.27,1.27,0,0,0-.44,1.71,1.26,1.26,0,0,0,1.71.45Z"/><path class="cls-1" d="M137.17,121.38c1.77-.13,3.53-.39,5.3-.52a57.29,57.29,0,0,1,9.17.11c1.54.13,3.07.4,4.62.4s2.82-.1,4.23-.23a49.08,49.08,0,0,0,8.17-1.28,1.25,1.25,0,0,0-.66-2.41,46.4,46.4,0,0,1-8,1.24,51.29,51.29,0,0,1-8.76-.26,58,58,0,0,0-8.74-.07c-1.77.13-3.53.39-5.3.52-1.6.11-1.61,2.62,0,2.5Z"/><line class="cls-2" x1="161.83" y1="103.94" x2="172.51" y2="109.18"/><line class="cls-2" x1="157.93" y1="119.9" x2="159.94" y2="111.98"/><line class="cls-2" x1="161.19" y1="120.19" x2="163.73" y2="111.66"/><path class="cls-2" d="M168.33,118.66l2.36-2.9a.27.27,0,0,1,.33-.06l2.2,1.11"/><path class="cls-2" d="M152.68,106.8l2.88,1.83a.1.1,0,0,0,.16-.07l0-3"/><path class="cls-3" d="M152.9,197.91a26.29,26.29,0,0,0,16.83-46.69L144,196.38A26.44,26.44,0,0,0,152.9,197.91Z"/><path class="cls-3" d="M268.48,196.17a26.77,26.77,0,0,0,19.72-.29l-25.93-45.52a26.25,26.25,0,0,0,6.21,45.81Z"/><polygon class="cls-4" points="235.26 103.06 197.4 103.06 189.55 116.83 243.11 116.83 235.26 103.06"/><polygon class="cls-4" points="230.44 94.59 216.33 69.83 202.23 94.59 230.44 94.59"/><polyline class="cls-5" points="323.78 281.17 403.11 281.17 403.11 393.73 387.26 393.73"/><polyline class="cls-5" points="45.63 393.73 30 393.73 30 281.17 107.11 281.17"/><path class="cls-6" d="M94.9,347.58l-2-7.34H79.32l-2,7.34H55.46l15.85-39.92a11.78,11.78,0,0,1,4.09-5.43,15.75,15.75,0,0,1,10.68-3.39,22.53,22.53,0,0,1,5.52.64,13.92,13.92,0,0,1,9.35,8.18l15.76,39.92Zm-8.82-32.52-3.83,14.18H90Z"/><path class="cls-6" d="M138.25,334v13.54H117.6V307.52c0-4.23,4.18-7.2,9.88-7.2h21c6.85,0,12.1,1.7,15.84,5.15s5.61,7.27,5.61,11.71-1.87,8.32-5.61,11.78-9,5.08-15.84,5.08Zm0-21.16v8.6h4c3.91,0,6.23-1.55,6.23-4.3s-2.32-4.3-6.23-4.3Z"/><path class="cls-6" d="M172.35,347.58V300.32H193v47.26Z"/><path class="cls-6" d="M216.41,323.17v24.41H196.56V310.06c0-6.77,5.79-11.22,13.62-11.22,5.43,0,10.59,2.47,13,6.63l11.12,19V300.32h20.57v37.52a9.92,9.92,0,0,1-4.19,8.18,16.55,16.55,0,0,1-10.14,3.11c-6,0-10.24-2.05-12.65-6.21Z"/><path class="cls-6" d="M295.2,347.58l-2-7.34H279.62l-2,7.34h-21.9l15.84-39.92a11.86,11.86,0,0,1,4.1-5.43,15.75,15.75,0,0,1,10.68-3.39,22.53,22.53,0,0,1,5.52.64,13.92,13.92,0,0,1,9.35,8.18L317,347.58Zm-8.82-32.52-3.83,14.18h7.75Z"/><path class="cls-6" d="M337.75,323.17v24.41H317.9V310.06c0-6.77,5.78-11.22,13.62-11.22,5.43,0,10.59,2.47,13,6.63l11.13,19V300.32H376.2v37.52A9.91,9.91,0,0,1,372,346a16.56,16.56,0,0,1-10.15,3.11c-6,0-10.24-2.05-12.64-6.21Z"/><path class="cls-6" d="M69.7,380H68.46l-1.21-3.79H60.94L59.68,380H58.46l5-14.92h1.34Zm-5.57-13.52-2.87,8.66h5.67Z"/><path class="cls-6" d="M78.92,376.13a2.37,2.37,0,0,0-.43-1.47,2.83,2.83,0,0,0-1.14-.88,10.3,10.3,0,0,0-1.54-.51c-.56-.14-1.12-.3-1.69-.49a7.72,7.72,0,0,1-1.54-.68,3.06,3.06,0,0,1-1.14-1.22,4,4,0,0,1-.44-2,3.68,3.68,0,0,1,1.24-3,4.85,4.85,0,0,1,3.25-1.05,4.3,4.3,0,0,1,3.22,1.29,5.13,5.13,0,0,1,1.25,3.7H78.79a3.92,3.92,0,0,0-.94-2.81,3.2,3.2,0,0,0-2.4-1,3.72,3.72,0,0,0-2.37.72,2.88,2.88,0,0,0-.48,3.64,2.83,2.83,0,0,0,1.13.92,10.43,10.43,0,0,0,1.55.52c.57.15,1.13.32,1.7.49a8.71,8.71,0,0,1,1.55.66,3,3,0,0,1,1.13,1.17,3.77,3.77,0,0,1,.44,1.91,3.84,3.84,0,0,1-1.29,3.1,5.1,5.1,0,0,1-3.36,1.09,4.44,4.44,0,0,1-3.35-1.37,5.35,5.35,0,0,1-1.32-3.88h1.16a4.25,4.25,0,0,0,1,3,3.31,3.31,0,0,0,2.53,1,3.93,3.93,0,0,0,2.51-.77A2.68,2.68,0,0,0,78.92,376.13Z"/><path class="cls-6" d="M90.52,376.13a2.37,2.37,0,0,0-.43-1.47,2.83,2.83,0,0,0-1.14-.88,10.3,10.3,0,0,0-1.54-.51c-.56-.14-1.12-.3-1.69-.49a7.72,7.72,0,0,1-1.54-.68A3.06,3.06,0,0,1,83,370.88a4,4,0,0,1-.44-2,3.68,3.68,0,0,1,1.24-3,4.85,4.85,0,0,1,3.25-1.05,4.32,4.32,0,0,1,3.22,1.29,5.13,5.13,0,0,1,1.25,3.7H90.38a3.92,3.92,0,0,0-.93-2.81,3.2,3.2,0,0,0-2.4-1,3.77,3.77,0,0,0-2.38.72,2.89,2.89,0,0,0-.47,3.64,2.83,2.83,0,0,0,1.13.92,10.05,10.05,0,0,0,1.55.52c.57.15,1.13.32,1.7.49a8.71,8.71,0,0,1,1.55.66,3,3,0,0,1,1.13,1.17,3.77,3.77,0,0,1,.44,1.91,3.81,3.81,0,0,1-1.3,3.1,5.05,5.05,0,0,1-3.35,1.09,4.44,4.44,0,0,1-3.35-1.37,5.35,5.35,0,0,1-1.32-3.88h1.16a4.25,4.25,0,0,0,1,3,3.31,3.31,0,0,0,2.53,1,3.93,3.93,0,0,0,2.51-.77A2.68,2.68,0,0,0,90.52,376.13Z"/><path class="cls-6" d="M98.69,380.21a4.37,4.37,0,0,1-3.4-1.44A5.3,5.3,0,0,1,94,375V370.1a5.37,5.37,0,0,1,1.31-3.76,4.7,4.7,0,0,1,6.79,0,5.37,5.37,0,0,1,1.32,3.76V375a5.32,5.32,0,0,1-1.32,3.73A4.35,4.35,0,0,1,98.69,380.21Zm0-1.2a3.39,3.39,0,0,0,2.53-1.06,4,4,0,0,0,1-2.88v-5a4.13,4.13,0,0,0-1-2.87,3.55,3.55,0,0,0-5.09,0,4,4,0,0,0-1,2.86v5a4.11,4.11,0,0,0,1,2.87A3.33,3.33,0,0,0,98.69,379Z"/><path class="cls-6" d="M113.92,374.82h1.18a5.8,5.8,0,0,1-1.29,3.91,4.27,4.27,0,0,1-3.42,1.5,4.34,4.34,0,0,1-3.4-1.45,5.31,5.31,0,0,1-1.31-3.73v-5a5.32,5.32,0,0,1,1.31-3.74,4.37,4.37,0,0,1,3.4-1.44,4.3,4.3,0,0,1,3.41,1.49,5.65,5.65,0,0,1,1.3,3.86h-1.18a4.69,4.69,0,0,0-1-3,3.14,3.14,0,0,0-2.58-1.17,3.36,3.36,0,0,0-2.54,1.05,4.06,4.06,0,0,0-1,2.88v5.06a4.25,4.25,0,0,0,.94,2.8,3.19,3.19,0,0,0,2.59,1.16,3.1,3.1,0,0,0,2.61-1.22A4.84,4.84,0,0,0,113.92,374.82Z"/><path class="cls-6" d="M117.58,365.12h1.17V380h-1.17Z"/><path class="cls-6" d="M131.87,380h-1.24l-1.21-3.79h-6.31L121.85,380h-1.22l5-14.92H127Zm-5.57-13.52-2.87,8.66h5.67Z"/><path class="cls-6" d="M142.37,370.22H141.2a4.76,4.76,0,0,0-1-3,3.14,3.14,0,0,0-2.58-1.17,3.33,3.33,0,0,0-2.53,1.05,4,4,0,0,0-1,2.88v5.06a4.1,4.1,0,0,0,1,2.88,3.27,3.27,0,0,0,2.54,1.08,3.1,3.1,0,0,0,2.61-1.22,4.78,4.78,0,0,0,.93-3h1.17a6,6,0,0,1-1.13,3.74,4.15,4.15,0,0,1-3.06,1.63l-1.2,3h-1.26l1.54-3a4.24,4.24,0,0,1-3.11-1.55,5.44,5.44,0,0,1-1.2-3.61v-5a5.37,5.37,0,0,1,1.31-3.73,4.72,4.72,0,0,1,6.84,0A5.73,5.73,0,0,1,142.37,370.22Z"/><path class="cls-6" d="M154.89,380h-1.24l-1.22-3.79h-6.3L144.87,380h-1.22l5-14.92H150Zm-2.26-18.47v1.1a2.79,2.79,0,0,1-1.81.8,4,4,0,0,1-1.48-.4,4,4,0,0,0-1.46-.4,3.07,3.07,0,0,0-1.89.82v-1.08a2.93,2.93,0,0,1,1.83-.74,4.49,4.49,0,0,1,1.52.38,4.29,4.29,0,0,0,1.42.39A3,3,0,0,0,152.63,361.57Zm-3.31,4.95-2.87,8.66h5.67Z"/><path class="cls-6" d="M160.68,380.21a4.37,4.37,0,0,1-3.4-1.44A5.3,5.3,0,0,1,156,375V370.1a5.37,5.37,0,0,1,1.31-3.76,4.71,4.71,0,0,1,6.8,0,5.42,5.42,0,0,1,1.31,3.76V375a5.36,5.36,0,0,1-1.31,3.73A4.39,4.39,0,0,1,160.68,380.21Zm0-1.2a3.39,3.39,0,0,0,2.53-1.06,4,4,0,0,0,1-2.88v-5a4.08,4.08,0,0,0-1-2.87,3.54,3.54,0,0,0-5.08,0,4,4,0,0,0-1,2.86v5a4.07,4.07,0,0,0,1,2.87A3.29,3.29,0,0,0,160.68,379Z"/><path class="cls-6" d="M176.47,375.73h-2.83V380h-1.18V365.12h4a4.62,4.62,0,0,1,3.46,1.35,5.08,5.08,0,0,1,1.31,3.73v.55a4.94,4.94,0,0,1-1.3,3.67A4.7,4.7,0,0,1,176.47,375.73Zm-2.83-9.38v8.17h2.79a3.66,3.66,0,0,0,2.64-1,3.8,3.8,0,0,0,1-2.83v-.53a3.86,3.86,0,0,0-1-2.9,3.7,3.7,0,0,0-2.64-.95Z"/><path class="cls-6" d="M187.53,375.3H184.8V380h-1.18V365.12h4.07a4.62,4.62,0,0,1,3.44,1.29,4.91,4.91,0,0,1,1.27,3.6v.55a4.63,4.63,0,0,1-1,3.1,4.19,4.19,0,0,1-2.68,1.43l3.64,5H191Zm-2.73-8.95v7.75h2.79a3.81,3.81,0,0,0,2.64-.9,3.39,3.39,0,0,0,1-2.64V370a3.5,3.5,0,0,0-1-2.72,3.78,3.78,0,0,0-2.65-.9Z"/><path class="cls-6" d="M199.09,380.21a4.38,4.38,0,0,1-3.4-1.44,5.35,5.35,0,0,1-1.31-3.74V370.1a5.42,5.42,0,0,1,1.31-3.76,4.71,4.71,0,0,1,6.8,0,5.37,5.37,0,0,1,1.31,3.76V375a5.31,5.31,0,0,1-1.31,3.73A4.37,4.37,0,0,1,199.09,380.21Zm0-1.2a3.37,3.37,0,0,0,2.53-1.06,4,4,0,0,0,1-2.88v-5a4.09,4.09,0,0,0-1-2.87,3.54,3.54,0,0,0-5.08,0,4,4,0,0,0-1,2.86v5a4.07,4.07,0,0,0,1,2.87A3.31,3.31,0,0,0,199.09,379Z"/><path class="cls-6" d="M210.05,380h-1.17V366.35H205v-1.23h9v1.23h-3.92Z"/><path class="cls-6" d="M217.32,373.06v5.78H224V380h-7.81V365.12H224v1.23h-6.63v5.59h4.75v1.12Z"/><path class="cls-6" d="M230.7,380h-1.18V366.35h-3.89v-1.23h9v1.23H230.7Z"/><path class="cls-6" d="M240.5,380.21a4.37,4.37,0,0,1-3.4-1.44,5.3,5.3,0,0,1-1.31-3.74V370.1a5.37,5.37,0,0,1,1.31-3.76,4.7,4.7,0,0,1,6.79,0,5.37,5.37,0,0,1,1.32,3.76V375a5.32,5.32,0,0,1-1.32,3.73A4.35,4.35,0,0,1,240.5,380.21Zm0-1.2A3.39,3.39,0,0,0,243,378a4,4,0,0,0,1-2.88v-5a4.13,4.13,0,0,0-1-2.87,3.55,3.55,0,0,0-5.09,0,4,4,0,0,0-1,2.86v5a4.11,4.11,0,0,0,1,2.87A3.33,3.33,0,0,0,240.5,379Z"/><path class="cls-6" d="M251.8,375.3h-2.74V380h-1.17V365.12H252a4.6,4.6,0,0,1,3.43,1.29,4.88,4.88,0,0,1,1.28,3.6v.55a4.58,4.58,0,0,1-1,3.1,4.14,4.14,0,0,1-2.67,1.43l3.63,5h-1.42Zm-2.74-8.95v7.75h2.8a3.81,3.81,0,0,0,2.64-.9,3.39,3.39,0,0,0,1-2.64V370a3.53,3.53,0,0,0-1-2.72,3.8,3.8,0,0,0-2.65-.9Z"/><path class="cls-6" d="M269.09,380h-1.24l-1.22-3.79h-6.3L259.07,380h-1.22l5-14.92h1.34Zm-5.57-13.52-2.88,8.66h5.67Z"/><path class="cls-6" d="M271.92,368.89a.78.78,0,0,1-.23.58.72.72,0,0,1-1.09,0,.86.86,0,0,1,0-1.17.76.76,0,0,1,1.09,0A.77.77,0,0,1,271.92,368.89Zm0,10.45a.81.81,0,0,1-.23.59.74.74,0,0,1-1.09,0,.81.81,0,0,1-.23-.59.81.81,0,0,1,.23-.6.74.74,0,0,1,1.09,0A.81.81,0,0,1,271.92,379.34Z"/><path class="cls-6" d="M278.79,365.12H280V380h-1.18Zm1-1.71h-1l1.58-3.32h1.26Z"/><path class="cls-6" d="M292.49,380h-1.08l-7.23-12.55V380H283V365.12h1.06l7.25,12.59V365.23h1.18Z"/><path class="cls-6" d="M300,380h-4.43V365.12H300a4.41,4.41,0,0,1,3.44,1.41,5.88,5.88,0,0,1,1.28,4.07v3.9a5.94,5.94,0,0,1-1.29,4.09A4.35,4.35,0,0,1,300,380Zm-3.25-1.2h3.13a3.34,3.34,0,0,0,2.68-1.14,5.18,5.18,0,0,0,1-3.46v-3.4a5,5,0,0,0-1-3.4,3.4,3.4,0,0,0-2.68-1.09h-3.13Z"/><path class="cls-6" d="M307.38,365.12h1.18V380h-1.18Z"/><path class="cls-6" d="M320.64,369.93h-1.18a4,4,0,0,0-1-2.81,3.3,3.3,0,0,0-2.52-1,3.16,3.16,0,0,0-2.57,1.13,4.79,4.79,0,0,0-.95,3.16v4.72a4.05,4.05,0,0,0,1,2.87,3.54,3.54,0,0,0,5.07,0,4.05,4.05,0,0,0,1-2.87v-.85H316v-1.12h4.69v1.95a5.32,5.32,0,0,1-1.32,3.73,4.69,4.69,0,0,1-6.78,0,5.36,5.36,0,0,1-1.31-3.73v-5a5.37,5.37,0,0,1,1.31-3.73,4.67,4.67,0,0,1,6.74,0A5.29,5.29,0,0,1,320.64,369.93Z"/><path class="cls-6" d="M324.49,373.06v5.78h6.63V380h-7.81V365.12h7.81v1.23h-6.63v5.59h4.75v1.12Z"/><path class="cls-6" d="M343.18,380H342.1l-7.23-12.55V380H333.7V365.12h1.05L342,377.71V365.23h1.18Z"/><path class="cls-6" d="M356.3,380h-1.24l-1.22-3.79h-6.31L346.27,380h-1.21l5-14.92h1.33Zm-5.57-13.52-2.88,8.66h5.67Z"/><path class="cls-6" d="M365.52,376.13a2.38,2.38,0,0,0-.44-1.47,2.7,2.7,0,0,0-1.14-.88,10.16,10.16,0,0,0-1.53-.51c-.56-.14-1.13-.3-1.69-.49a7.81,7.81,0,0,1-1.55-.68,3.13,3.13,0,0,1-1.14-1.22,4.1,4.1,0,0,1-.44-2,3.71,3.71,0,0,1,1.24-3,4.87,4.87,0,0,1,3.26-1.05,4.29,4.29,0,0,1,3.21,1.29,5.09,5.09,0,0,1,1.26,3.7h-1.18a3.88,3.88,0,0,0-.94-2.81,3.16,3.16,0,0,0-2.39-1,3.73,3.73,0,0,0-2.38.72,2.52,2.52,0,0,0-.92,2.11,2.59,2.59,0,0,0,.44,1.53,2.79,2.79,0,0,0,1.14.92,9.7,9.7,0,0,0,1.55.52c.56.15,1.13.32,1.69.49a8.12,8.12,0,0,1,1.55.66,2.92,2.92,0,0,1,1.14,1.17,3.88,3.88,0,0,1,.44,1.91,3.81,3.81,0,0,1-1.3,3.1,5.05,5.05,0,0,1-3.35,1.09,4.48,4.48,0,0,1-3.36-1.37,5.35,5.35,0,0,1-1.32-3.88h1.16a4.3,4.3,0,0,0,1,3,3.33,3.33,0,0,0,2.54,1,3.91,3.91,0,0,0,2.5-.77A2.66,2.66,0,0,0,365.52,376.13Z"/><path class="cls-6" d="M368.93,382.67H368l2.35-6.84h1.24Z"/><path class="cls-6" d="M69.14,405.44H68.06l-7.22-12.55v12.55H59.66V390.52h1.06L68,403.11V390.62h1.18Z"/><path class="cls-6" d="M82.26,405.44H81l-1.22-3.79H73.49l-1.25,3.79H71l5-14.92h1.34Zm-5.57-13.53-2.88,8.66h5.67Z"/><path class="cls-6" d="M87,405.44H85.83V391.75H81.94v-1.23h9v1.23H87Z"/><path class="cls-6" d="M92.9,390.52h1.18v9.94a4,4,0,0,0,1,2.88,3.55,3.55,0,0,0,5.07,0,4.06,4.06,0,0,0,1-2.87v-9.94h1.17v9.9a5.38,5.38,0,0,1-1.31,3.74,4.71,4.71,0,0,1-6.79,0,5.33,5.33,0,0,1-1.32-3.75Z"/><path class="cls-6" d="M109.11,400.7h-2.73v4.74H105.2V390.52h4.07a4.64,4.64,0,0,1,3.44,1.29,4.9,4.9,0,0,1,1.27,3.6V396a4.67,4.67,0,0,1-1,3.1,4.24,4.24,0,0,1-2.68,1.43l3.63,4.95h-1.41Zm-2.73-8.95v7.74h2.79a3.81,3.81,0,0,0,2.64-.9,3.38,3.38,0,0,0,1-2.63v-.6a3.51,3.51,0,0,0-1-2.72,3.83,3.83,0,0,0-2.65-.89Z"/><path class="cls-6" d="M117.54,398.45v5.78h6.63v1.21h-7.81V390.52h7.81v1.23h-6.63v5.58h4.75v1.12Z"/><path class="cls-6" d="M126.18,391.75v-1.23h8.55l-7.09,13.71h6.81v1.21h-8.71l7.11-13.69Z"/><path class="cls-6" d="M147.14,405.44h-1.23l-1.22-3.79h-6.31l-1.26,3.79H135.9l5-14.92h1.33Zm-5.56-13.53-2.88,8.66h5.67Z"/><path class="cls-6" d="M148.58,408.06h-1l2.36-6.83h1.24Z"/><path class="cls-6" d="M167.93,405.44h-1.24l-1.22-3.79h-6.31l-1.25,3.79h-1.22l5-14.92H163Zm-5.57-13.53-2.88,8.66h5.67Z"/><path class="cls-6" d="M179.29,405.44h-1.08L171,392.89v12.55H169.8V390.52h1.06l7.25,12.59V390.62h1.18Z"/><path class="cls-6" d="M182.36,390.52h1.18v14.92h-1.18Z"/><path class="cls-6" d="M192.92,403.07H192l-4.2-9.7v12.07h-1.17V390.52h1.11l4.72,11,4.75-11h1.11v14.92h-1.17V393.35Z"/><path class="cls-6" d="M211.43,405.44h-1.24L209,401.65h-6.31l-1.26,3.79h-1.22l5-14.92h1.34Zm-5.57-13.53L203,400.57h5.67Z"/><path class="cls-6" d="M213.31,390.52h1.18v14.92h-1.18Z"/><path class="cls-6" d="M225.31,401.52a2.4,2.4,0,0,0-.44-1.47,2.7,2.7,0,0,0-1.14-.88,11.6,11.6,0,0,0-1.54-.5c-.56-.15-1.12-.31-1.68-.49a7.07,7.07,0,0,1-1.55-.69,3,3,0,0,1-1.14-1.22,4.06,4.06,0,0,1-.44-2,3.7,3.7,0,0,1,1.24-3,4.85,4.85,0,0,1,3.25-1.05,4.3,4.3,0,0,1,3.22,1.29,5.11,5.11,0,0,1,1.26,3.71h-1.18a3.93,3.93,0,0,0-.94-2.82,3.2,3.2,0,0,0-2.4-1,3.72,3.72,0,0,0-2.37.72,2.53,2.53,0,0,0-.92,2.12,2.58,2.58,0,0,0,.44,1.52,2.64,2.64,0,0,0,1.14.92,11.08,11.08,0,0,0,1.54.53c.57.15,1.13.31,1.7.49a7.76,7.76,0,0,1,1.55.65,3.09,3.09,0,0,1,1.14,1.18,4.34,4.34,0,0,1-.86,5,5,5,0,0,1-3.36,1.09,4.46,4.46,0,0,1-3.35-1.36,5.38,5.38,0,0,1-1.32-3.89h1.16a4.26,4.26,0,0,0,1,3,3.32,3.32,0,0,0,2.53,1,3.88,3.88,0,0,0,2.51-.78A2.67,2.67,0,0,0,225.31,401.52Z"/><path class="cls-6" d="M234.73,398.45v5.78h6.63v1.21h-7.81V390.52h7.81v1.23h-6.63v5.58h4.75v1.12Z"/><path class="cls-6" d="M257.81,405.44h-1.08l-7.23-12.55v12.55h-1.17V390.52h1l7.25,12.59V390.62h1.18Z"/><path class="cls-6" d="M262.06,398.45v5.78h6.63v1.21h-7.81V390.52h7.81v1.23h-6.63v5.58h4.75v1.12Z"/><path class="cls-6" d="M278.71,400.21h1.18a5.78,5.78,0,0,1-1.29,3.91,4.26,4.26,0,0,1-3.42,1.51,4.41,4.41,0,0,1-3.41-1.45,5.37,5.37,0,0,1-1.3-3.74v-5a5.37,5.37,0,0,1,1.3-3.75,4.4,4.4,0,0,1,3.41-1.44,4.28,4.28,0,0,1,3.41,1.5,5.64,5.64,0,0,1,1.3,3.86h-1.18a4.69,4.69,0,0,0-1-3,3.11,3.11,0,0,0-2.57-1.17,3.33,3.33,0,0,0-2.54,1.06,4,4,0,0,0-1,2.88v5a4.3,4.3,0,0,0,.94,2.81,3.18,3.18,0,0,0,2.59,1.15,3.06,3.06,0,0,0,2.6-1.22A4.76,4.76,0,0,0,278.71,400.21Z"/><path class="cls-6" d="M283.54,398.45v5.78h6.63v1.21h-7.8V390.52h7.8v1.23h-6.63v5.58h4.76v1.12Z"/><path class="cls-6" d="M300.1,401.52a2.4,2.4,0,0,0-.44-1.47,2.83,2.83,0,0,0-1.14-.88,11.6,11.6,0,0,0-1.54-.5c-.56-.15-1.12-.31-1.69-.49a7.2,7.2,0,0,1-1.54-.69,3,3,0,0,1-1.14-1.22,4.06,4.06,0,0,1-.44-2,3.7,3.7,0,0,1,1.24-3,4.85,4.85,0,0,1,3.25-1.05,4.3,4.3,0,0,1,3.22,1.29,5.15,5.15,0,0,1,1.25,3.71H300a3.93,3.93,0,0,0-.94-2.82,3.2,3.2,0,0,0-2.4-1,3.72,3.72,0,0,0-2.37.72,2.88,2.88,0,0,0-.48,3.64,2.67,2.67,0,0,0,1.13.92,11.71,11.71,0,0,0,1.55.53c.57.15,1.13.31,1.7.49a8,8,0,0,1,1.55.65,3,3,0,0,1,1.13,1.18,3.74,3.74,0,0,1,.44,1.9,3.84,3.84,0,0,1-1.29,3.1,5,5,0,0,1-3.36,1.09,4.45,4.45,0,0,1-3.35-1.36,5.38,5.38,0,0,1-1.32-3.89h1.16a4.22,4.22,0,0,0,1,3,3.32,3.32,0,0,0,2.53,1,3.88,3.88,0,0,0,2.51-.78A2.67,2.67,0,0,0,300.1,401.52Z"/><path class="cls-6" d="M311.7,401.52a2.4,2.4,0,0,0-.44-1.47,2.83,2.83,0,0,0-1.14-.88,11.6,11.6,0,0,0-1.54-.5c-.56-.15-1.12-.31-1.69-.49a7.2,7.2,0,0,1-1.54-.69,3,3,0,0,1-1.14-1.22,4,4,0,0,1-.44-2,3.7,3.7,0,0,1,1.24-3,4.85,4.85,0,0,1,3.25-1.05,4.3,4.3,0,0,1,3.22,1.29,5.15,5.15,0,0,1,1.25,3.71h-1.17a3.93,3.93,0,0,0-.94-2.82,3.2,3.2,0,0,0-2.4-1,3.77,3.77,0,0,0-2.38.72,2.89,2.89,0,0,0-.47,3.64,2.67,2.67,0,0,0,1.13.92,11.71,11.71,0,0,0,1.55.53c.57.15,1.13.31,1.7.49a8,8,0,0,1,1.55.65,3,3,0,0,1,1.13,1.18,3.74,3.74,0,0,1,.44,1.9,3.84,3.84,0,0,1-1.29,3.1,5,5,0,0,1-3.36,1.09,4.45,4.45,0,0,1-3.35-1.36,5.38,5.38,0,0,1-1.32-3.89h1.16a4.22,4.22,0,0,0,1,3,3.32,3.32,0,0,0,2.53,1,3.88,3.88,0,0,0,2.51-.78A2.67,2.67,0,0,0,311.7,401.52Z"/><path class="cls-6" d="M315.55,390.52h1.18v14.92h-1.18Z"/><path class="cls-6" d="M324,405.44H322.8V391.75h-3.9v-1.23h9v1.23H324Z"/><path class="cls-6" d="M338.41,405.44h-1.24L336,401.65h-6.31l-1.25,3.79h-1.22l5-14.92h1.34Zm-5.57-13.53L330,400.57h5.67Z"/><path class="cls-6" d="M344.72,405.44h-4.44V390.52h4.44a4.41,4.41,0,0,1,3.43,1.41,5.84,5.84,0,0,1,1.28,4.07v3.89a6,6,0,0,1-1.29,4.1A4.38,4.38,0,0,1,344.72,405.44Zm-3.26-1.21h3.14a3.35,3.35,0,0,0,2.67-1.13,5.21,5.21,0,0,0,1-3.46v-3.41a5,5,0,0,0-1-3.4,3.42,3.42,0,0,0-2.67-1.08h-3.14Z"/><path class="cls-6" d="M356.42,405.61a4.39,4.39,0,0,1-3.41-1.44,5.37,5.37,0,0,1-1.31-3.75v-4.93a5.37,5.37,0,0,1,1.31-3.75,4.71,4.71,0,0,1,6.8,0,5.33,5.33,0,0,1,1.32,3.75v4.93a5.34,5.34,0,0,1-1.32,3.74A4.4,4.4,0,0,1,356.42,405.61Zm0-1.21a3.32,3.32,0,0,0,2.52-1.06,4,4,0,0,0,1-2.88v-5a4.1,4.1,0,0,0-1-2.88,3.3,3.3,0,0,0-2.54-1.08,3.34,3.34,0,0,0-2.54,1.07,4,4,0,0,0-1,2.87v5a4.05,4.05,0,0,0,1,2.87A3.33,3.33,0,0,0,356.42,404.4Z"/><path class="cls-6" d="M371.55,401.52a2.4,2.4,0,0,0-.44-1.47,2.7,2.7,0,0,0-1.14-.88,11.14,11.14,0,0,0-1.54-.5c-.55-.15-1.12-.31-1.68-.49a7.29,7.29,0,0,1-1.55-.69,3.07,3.07,0,0,1-1.14-1.22,4.06,4.06,0,0,1-.44-2,3.73,3.73,0,0,1,1.24-3,4.87,4.87,0,0,1,3.26-1.05,4.29,4.29,0,0,1,3.21,1.29,5.11,5.11,0,0,1,1.26,3.71h-1.18a3.89,3.89,0,0,0-.94-2.82,3.16,3.16,0,0,0-2.39-1,3.73,3.73,0,0,0-2.38.72,2.53,2.53,0,0,0-.92,2.12,2.58,2.58,0,0,0,.44,1.52,2.64,2.64,0,0,0,1.14.92,10.79,10.79,0,0,0,1.55.53c.56.15,1.13.31,1.69.49a7.76,7.76,0,0,1,1.55.65,3,3,0,0,1,1.14,1.18,4.34,4.34,0,0,1-.86,5,5,5,0,0,1-3.35,1.09,4.47,4.47,0,0,1-3.36-1.36,5.38,5.38,0,0,1-1.32-3.89h1.16a4.26,4.26,0,0,0,1,3,3.34,3.34,0,0,0,2.54,1,3.85,3.85,0,0,0,2.5-.78A2.64,2.64,0,0,0,371.55,401.52Z"/><path class="cls-4" d="M292,202.68a33.78,33.78,0,0,1-33.22-58.3L247.94,125.3H184.73l-11.38,20a33.78,33.78,0,0,1-33.12,58.14L91.65,288.69h70.07l53-99.17a2,2,0,0,1,3.51,0l51.56,99.15H341ZM138.85,252.44l-10,17.3a4.62,4.62,0,0,1-8-4.62l10-17.3a4.62,4.62,0,1,1,8,4.62ZM156.94,250l-3,19.76a4.62,4.62,0,0,1-9.14-1.37l3-19.76a4.62,4.62,0,0,1,9.14,1.37Zm126.35,23.64a4.62,4.62,0,0,1-5.25-3.88l-3-19.76a4.62,4.62,0,0,1,9.14-1.37l3,19.76A4.62,4.62,0,0,1,283.29,273.61Zm26.17-1.8a4.62,4.62,0,0,1-6.31-1.69l-10-17.3a4.62,4.62,0,0,1,8-4.62l10,17.3A4.61,4.61,0,0,1,309.46,271.81Z"/></svg>